<svg width="80" height="80" fill="none" xmlns="http://www.w3.org/2000/svg"><path d="M17.43 9.828C8.094 15.224.345 19.776.224 19.93.052 20.172 0 24.276 0 40.017c0 18.586.017 19.793.31 20.12C.778 60.673 34.43 80 34.879 80c.225 0 3.28-1.672 6.8-3.69l6.368-3.69 1.432 1.518c1.795 1.896 3.349 3.069 5.42 4.034 6.8 3.225 14.669 1.88 19.932-3.413 1.605-1.621 2.606-3.035 3.538-5 3.47-7.414 1.26-16.431-5.229-21.31-.76-.587-1.846-1.277-2.399-1.57l-1.018-.5V33.293c0-12.207-.017-13.103-.293-13.43C68.945 19.31 35.309 0 34.844 0c-.225.017-8.06 4.431-17.414 9.828Zm32.756 1.982c8.37 4.828 15.222 8.828 15.222 8.88 0 .103-14.79 8.672-15.118 8.758-.26.07-28.58-18.776-28.459-18.914.19-.19 12.944-7.568 13.047-7.534.052 0 6.938 3.966 15.308 8.81ZM33.187 21.57c7.697 5.138 14.065 9.38 14.152 9.448.069.07-2.71 1.759-6.179 3.759l-6.299 3.638-4.97-2.88c-2.727-1.569-9.596-5.534-15.273-8.81-5.661-3.276-10.304-5.983-10.304-6.034 0-.138 14.376-8.431 14.635-8.431.104-.018 6.524 4.19 14.238 9.31ZM19.122 32.5l14.358 8.276V58.5c0 9.759-.051 17.69-.12 17.655-.087-.034-1.416-.81-2.986-1.724-8.577-4.948-11.563-6.672-19.208-11.069l-8.387-4.828L2.76 40.81V23.086l1.001.57c.552.31 7.473 4.292 15.36 8.844Zm47.77 12.793c-.052.052-.794-.034-1.674-.19-4.884-.844-9.89.5-13.841 3.69-2.796 2.259-4.97 5.655-5.937 9.224-.397 1.5-.449 2.07-.466 4.31 0 2.863.207 3.983 1.14 6.432.293.775.5 1.448.465 1.482-.052.052-6.006 3.5-10.2 5.914-.086.035-.137-7.896-.137-17.655l.017-17.724 6.161-3.57 6.161-3.568.086 5.707.087 5.69.414.327a1.339 1.339 0 0 0 1.83-.103l.43-.414V31.983l7.732-4.448 7.715-4.432.051 11.07c.017 6.068 0 11.086-.034 11.12Zm-2.175 2.466c5.764.913 10.269 4.896 12.029 10.638.397 1.344.449 1.793.449 4.017s-.052 2.672-.466 4.052c-1.536 5.051-5.143 8.655-10.2 10.19-1.38.413-1.829.465-4.055.465-2.227 0-2.675-.052-4.021-.449-9.182-2.793-13.462-12.758-9.078-21.155C52.24 50 58.59 46.793 64.717 47.76Z"/><path d="M69.9 54.211c-.137.123-2.058 2.673-4.255 5.68-2.214 2.99-4.17 5.664-4.393 5.928l-.36.457-2.283-2.744c-2.42-2.954-2.951-3.376-3.74-2.99-.584.3-.979 1.02-.842 1.566.155.563 5.732 7.369 6.35 7.72.412.23.515.23.944 0 .257-.158 2.556-3.095 5.096-6.524 2.557-3.447 4.84-6.508 5.114-6.824.892-1.09.446-2.48-.79-2.48-.308 0-.686.105-.84.211Z"/></svg>