<svg width="80" height="80" fill="none" xmlns="http://www.w3.org/2000/svg"><path d="M9.136.054c-4.537.884-7.84 4.92-7.84 9.557 0 2.185 1.318 5.671 3.303 8.773l.85 1.335-.734 1.334c-5.02 9.24-6.104 20.848-2.902 30.872 2.035 6.372 5.27 11.709 9.908 16.329 15.646 15.661 40.899 15.661 56.545 0 9.857-9.857 13.844-23.934 10.658-37.527l-.45-1.885.517-1.818c1.1-3.77 1.284-7.422.55-10.724C77.306 6.376 68.482-.43 58.425.02c-2.219.1-4.637.567-6.322 1.234l-.8.317-1.902-.467C45.93.255 44.08.055 39.993.055c-4.103 0-5.955.2-9.474 1.067-3.403.834-7.189 2.302-9.841 3.803-.684.383-1.301.7-1.384.7-.084 0-.334-.367-.567-.817-.217-.45-.818-1.268-1.335-1.818C15.624 1.089 13.59.138 11.054.038 10.236.004 9.369.02 9.136.054Zm4.253 3.22c2.385 1.184 3.92 3.602 3.92 6.204 0 1.968-1.318 5.154-3.436 8.256-1.235 1.835-3.02 4.07-3.236 4.07-.084 0-.6-.55-1.151-1.218C6.2 16.55 3.98 12.063 3.965 9.461c0-2.985 2.118-5.804 4.987-6.621 1.284-.367 3.203-.167 4.437.433ZM45.58 3.04c1.017.167 1.885.334 1.951.4.067.067-.366.484-.967.934-2.235 1.685-4.887 5.02-6.055 7.622-2.118 4.737-2.418 9.74-.917 14.945 1.568 5.37 4.97 11.591 10.191 18.546 3.336 4.454 8.424 10.258 9.14 10.441.785.2 1.202-.1 3.053-2.151 5.788-6.405 10.275-12.593 13.561-18.597.8-1.468 1.15-1.968 1.218-1.751.583 1.934.7 8.94.216 11.975-.617 3.753-1.634 7.105-3.169 10.458l-.65 1.45-5.455.05c-5.27.05-5.454.067-6.138.434-1.684.884-2.585 2.219-2.869 4.22-.3 2.118-.7 2.369-4.103 2.485-2.819.117-3.37.284-4.52 1.451-3.002 3.07-.8 8.223 3.503 8.223.684 0 1.1.067 1 .15-.6.567-6.021 2.118-9.157 2.619-2.285.383-7.723.417-10.208.083-1.885-.25-2.002-.334-1.401-1.234.617-.934.9-1.034 3.603-1.134 2.919-.1 3.402-.267 4.654-1.668 2.185-2.419 1.467-6.221-1.485-7.79l-.834-.45-6.672-.083c-6.021-.083-6.722-.117-7.105-.384-.534-.367-.935-1.267-1.051-2.401-.167-1.735-1.151-3.22-2.67-4.02l-.85-.45-7.272-.05-7.273-.05-.216-.45c-.367-.768-1.502-3.386-1.502-3.453 0-.033 1.635-.083 3.637-.117 3.586-.05 3.636-.05 4.57-.517 1.785-.884 2.802-2.502 3.052-4.87.15-1.418.384-2.018 1.068-2.669l.534-.5 4.37-.084c4.72-.1 5.037-.15 6.171-1.1 1.268-1.068 2.119-2.902 2.119-4.554 0-1.75-1.035-3.87-2.336-4.77-1.334-.917-1.25-.917-13.627-.917-9.007 0-11.392-.05-11.392-.217 0-.367.8-3.52 1.25-4.853.518-1.602 1.418-3.787 2.119-5.154l.5-1.018.534.584c2.335 2.635 2.352 2.652 2.936 2.652.634 0 1.167-.5 3.286-3.136 3.803-4.72 6.054-9.423 6.054-12.675V8.46l.801-.517c1.151-.751 4.554-2.369 6.388-3.053 2.736-1 6.289-1.801 9.741-2.168 1.485-.15 6.906.05 8.674.317Zm18.148.15a18 18 0 0 1 11.809 9.69c2.819 5.921 2.352 11.509-1.601 19.515-2.235 4.503-5.104 8.873-9.174 13.96-2.102 2.635-5.171 6.188-5.421 6.271-.184.067-3.336-3.553-5.521-6.305-6.405-8.089-10.292-14.927-11.86-20.848-.7-2.702-.817-5.821-.3-8.323.767-3.77 2.169-6.354 4.92-9.123 3.003-3.019 6.039-4.57 10.192-5.237 1.718-.267 5.12-.067 6.956.4Zm-37.08 33.157c1.251.851 1.685 2.736.951 4.137-.75 1.417-.734 1.4-5.671 1.5-4.237.084-4.403.101-5.17.501-.985.5-2.036 1.601-2.47 2.586-.183.416-.4 1.4-.5 2.201-.2 1.551-.317 1.901-.884 2.519-.734.817-1 .867-5.02.867-2.069 0-3.753-.05-3.753-.134 0-.066-.167-.683-.35-1.367-.868-3.253-1.302-7.722-1.068-11.225l.117-1.952h23.268l.55.367Zm-5.254 24.151c.634.6.868 1.118.968 2.269.1 1.25.7 2.468 1.618 3.302 1.334 1.2 1.167 1.168 8.623 1.268l6.689.083.45.417c.934.867 1.15 1.885.65 2.952-.483 1-.85 1.118-3.569 1.234-2.051.084-2.535.15-3.22.467-1.017.5-2.184 1.802-2.534 2.853-.317.95-.15.95-2.586.166-7.673-2.468-14.795-7.755-19.182-14.26l-.85-1.268 6.255.05 6.238.05.45.417Zm49.873-.05c-2.269 3.52-6.055 7.422-9.825 10.124l-1.317.934h-3.57c-3.953 0-4.303-.066-4.887-1.05-.4-.634-.417-1.251-.1-2.035.417-1.001.867-1.151 3.603-1.268 2.735-.1 3.453-.317 4.637-1.4.867-.768 1.368-1.802 1.534-3.187.15-1.217.45-1.767 1.218-2.234.484-.3.867-.334 4.77-.334h4.22l-.283.45Z"/><path d="M9.658 5.216C8.84 5.486 7.44 6.94 7.19 7.8c-.416 1.418-.15 2.701.767 3.782C8.808 12.595 9.691 13 10.991 13c1.3 0 2.183-.405 3.033-1.418 1.4-1.638 1.283-3.749-.283-5.319-1.167-1.198-2.533-1.536-4.083-1.047Zm2.25 2.905c.833.827.25 2.279-.917 2.279-.683 0-1.333-.659-1.333-1.35 0-.693.65-1.352 1.333-1.352.317 0 .667.152.917.423Z"/><path d="M15 25.5V27h3v-3h-3v1.5Z"/><path d="M20 25.5V27h3v-3h-3v1.5Z"/><path d="M26 25.5V27h3v-3h-3v1.5Z"/><path d="M31.359 25.178c-.072.223-.359 1.886-.359 2.08 0 .059.115.118.258.118.13 0 .474.149.747.312l.488.312.76-.861.747-.877-.388-.326c-.358-.312-1.736-.936-2.052-.936-.072 0-.172.09-.201.178Z"/><path d="m33.712 28.131-.712.075V31h3v-3l-.788.038c-.45.018-1.125.056-1.5.093Z"/><path d="M33 35.5V37h3v-3h-3v1.5Z"/><path d="M33.131 39.131c-.075.056-.131.731-.131 1.5V42h3v-3h-1.369c-.769 0-1.444.056-1.5.131Z"/><path d="M33.131 44.131c-.075.056-.131.731-.131 1.5V47h3v-3h-1.369c-.769 0-1.444.056-1.5.131Z"/><path d="M33.041 50.272c-.11.29.018 2.584.164 2.72.054.035.727-.05 1.49-.203 1.054-.221 1.381-.358 1.29-.528-.054-.136-.09-.697-.09-1.258V50H34.53c-1.072 0-1.4.051-1.49.272Z"/><path d="M35.583 54.868c-.698.967-.698.967-.372 1.248.31.25 2.402.982 2.526.873.015-.031.093-.608.154-1.263l.109-1.2-.434-.11a5.757 5.757 0 0 1-.868-.312c-.403-.203-.418-.187-1.115.764Z"/><path d="M41 55.5V57h3v-3h-3v1.5Z"/><path d="M46 55.5V57h3v-3h-3v1.5Z"/><path d="M52 55.5V57h3v-3h-3v1.5Z"/><path d="M56.606 7.23c-4.999 1.112-9.005 5.037-10.3 10.091-.405 1.584-.405 4.802-.018 6.301 1.145 4.262 3.686 7.362 7.54 9.182 2.004.96 3.131 1.196 5.707 1.196 1.851 0 2.508-.067 3.585-.388 3.736-1.078 6.766-3.605 8.466-7.025C72.613 24.481 73 22.864 73 20.522c0-6.065-3.804-11.203-9.678-13.056-1.566-.506-5.016-.624-6.716-.236Zm5.453 2.695c1.953.455 3.45 1.331 5.05 2.932 2.255 2.24 3.198 4.515 3.198 7.665 0 2.494-.673 4.532-2.12 6.503-1.448 1.971-3.923 3.572-6.397 4.128-1.498.32-3.989.253-5.302-.169-3.013-.943-5.335-2.931-6.732-5.745-2.593-5.239-.489-11.607 4.746-14.404 2.07-1.095 5.167-1.482 7.557-.91Z"/><path d="M55.31 16.519c-2.122 1.381-3.98 2.697-4.129 2.925-.315.471-.215 1.072.266 1.544.398.39.995.422 1.658.08l.497-.26v2.698c0 2.649 0 2.698.415 3.088l.398.406H64.728l.398-.406c.414-.39.414-.439.414-3.088V20.81l.365.243c.978.683 2.189.017 2.09-1.137-.05-.634-.067-.634-4.08-3.282C61.71 15.186 59.721 14 59.522 14c-.2 0-2.106 1.137-4.212 2.519Zm6.102 1.576 1.475.991V24.4h-6.632v-5.362l1.625-1.057c.879-.585 1.708-1.024 1.824-.975.133.049.895.537 1.708 1.089Z"/></svg>