<svg width="24" height="24" fill="none" xmlns="http://www.w3.org/2000/svg"><path d="M8.738.042c-.446.113-.915.502-1.111.933-.094.202-.104.31-.118 1.214l-.014.994-2.1.014-2.1.014-.225.14c-.154.099-.267.22-.37.399l-.145.258V6.539l.145.258c.103.178.216.3.37.398.207.127.268.14.713.155l.483.019v7.533c0 5.221.014 7.621.051 7.814.094.525.356.871.853 1.134l.244.127h13.172l.234-.118c.282-.136.59-.436.722-.693a2.11 2.11 0 0 0 .145-.483c.029-.197.047-2.864.047-7.81V7.37l.483-.019c.446-.014.506-.028.713-.155.154-.098.267-.22.37-.398l.145-.258V4.008L21.3 3.75a1.088 1.088 0 0 0-.37-.398l-.225-.141-2.1-.014-2.1-.014-.014-.994c-.014-.905-.024-1.012-.118-1.214-.14-.31-.492-.67-.806-.82l-.262-.132-3.211-.009C10.327.01 8.817.024 8.738.042Zm6.356 1.364c.089.09.094.155.094.938v.844H8.811v-.844c0-.783.005-.849.094-.938.094-.093.155-.093 3.094-.093 2.94 0 3 0 3.094.093Zm5.015 3.867v.774H3.89V4.5h16.22v.773Zm-1.734 9.694c0 5.855-.014 7.622-.056 7.664-.08.08-12.558.08-12.638 0-.042-.042-.056-1.81-.056-7.664V7.36h12.75v7.608Z"/><path d="M7.838 9.558a.945.945 0 0 0-.244.249c-.094.15-.094.248-.094 5.334 0 4.926.005 5.189.084 5.339.254.473.952.427 1.163-.075.056-.127.066-1.04.066-5.273 0-4.786-.005-5.133-.085-5.283-.169-.338-.59-.474-.89-.29Z"/><path d="M11.719 9.548a.827.827 0 0 0-.267.244l-.108.16v5.175c0 5.615-.014 5.292.258 5.545.103.098.173.117.398.117.225 0 .295-.019.399-.117.271-.253.257.07.257-5.54 0-5.044-.004-5.176-.093-5.321-.183-.305-.549-.417-.844-.263Z"/><path d="M15.567 9.549a.904.904 0 0 0-.258.215c-.098.132-.098.16-.112 5.32-.01 4.871-.005 5.2.07 5.354.24.469.905.497 1.149.042.08-.15.084-.413.084-5.34 0-5.052-.005-5.183-.094-5.329-.182-.304-.548-.417-.839-.262Z"/></svg>