<svg width="80" height="80" fill="none" xmlns="http://www.w3.org/2000/svg"><path d="M53.055.324c-1.328.664-1.625 1.481-1.641 4.614v2.3l-1.204.749c-5.002 3.167-8.535 8.787-9.504 15.156-.36 2.299-.25 6.08.218 8.157.188.783.329 1.447.329 1.498 0 .035-6.77.069-15.023.069-11.318 0-15.195.05-15.664.204-.813.272-1.61 1.14-1.845 2.01l-.187.68h-2.33c-2.266 0-2.344.017-2.704.426-.5.528-.5 1.175 0 1.703.36.409.438.426 2.736.426H8.58l-.032 6.164-.046 6.182-4.018.085c-3.783.085-4.033.102-4.252.426-.297.426-.313 1.09-.031 1.481.39.563 1.016.648 4.72.648h3.659v1.77c0 1.772 0 1.789-.422 2.01-.626.324-.907 1.022-.641 1.618.11.255.406.579.64.698l.423.221v4.82c0 4.734 0 4.836.36 5.398.578.954 1.187 1.175 3.204 1.175h1.75v.852h-1.969c-1.079 0-2.095.068-2.251.17-.672.391-.625 1.975.078 2.282.14.05 1.47.102 2.955.102 2.5 0 2.735-.034 3.126-.358.375-.323.407-.442.407-1.703v-1.345h.547c.469 0 .547.068.625.46.313 1.6.47 2.129.907 3.116.594 1.294 2.048 3.049 3.189 3.849 1.016.715 2.798 1.38 4.127 1.532 1.954.222 5.096-.8 5.596-1.822.313-.596 0-1.413-.625-1.686-.406-.187-.578-.153-1.407.256-2.61 1.277-5.377.8-7.378-1.26-3.47-3.576-2.564-9.588 1.766-11.836.844-.425 1.25-.528 2.47-.579 1.22-.068 1.61-.017 2.423.307 2.673 1.056 4.283 3.406 4.44 6.437.078 1.294.03 1.652-.329 2.793-.375 1.175-.406 1.38-.218 1.788.234.545.844.834 1.438.664.5-.136.922-1.039 1.313-2.844l.25-1.175h20.979l.203 1.107c.766 4.206 4.143 7.459 8.145 7.834 4.346.408 8.55-3.049 9.442-7.766l.203-1.09 1.626-.102c1.876-.102 2.564-.392 3.283-1.328.25-.34.531-.903.625-1.26.094-.392.14-2.98.11-6.812l-.047-6.182-.391-.8c-.22-.426-2.158-2.895-4.33-5.466l-3.94-4.666.891-.733c2.267-1.856 4.643-5.04 5.878-7.884 2.532-5.79 2.595-12.534.172-18.273-.39-.936-.61-1.26-.907-1.328-.625-.187-1.078-.034-1.407.46-.36.528-.36.562.579 3.031 1.266 3.389 1.516 7.8.64 11.478-.656 2.741-2.079 5.67-3.751 7.748-1.048 1.311-3.283 3.423-3.611 3.423-.11 0-1.72-1.822-3.596-4.053-1.86-2.214-3.642-4.24-3.94-4.513-1.14-.954-1.375-.97-10.285-.97H43.77l-.313-1.09c-.5-1.771-.688-3.696-.594-6.13.188-4.803 1.829-8.924 4.956-12.347 4.283-4.7 9.832-6.59 15.835-5.364 3.205.664 6.144 2.367 8.88 5.16.953.953 1.297 1.209 1.688 1.209.625 0 1.11-.528 1.11-1.21 0-.936-2.642-3.559-5.3-5.262l-1.094-.68-.047-2.691c-.047-2.504-.078-2.708-.422-3.253-.203-.306-.656-.715-1.016-.885C66.859.034 66.312 0 60.246 0c-6.034 0-6.612.034-7.19.324Zm13.491 4.035.047 1.737-1.422-.408c-2.11-.596-4.596-.818-6.66-.596-1.516.17-3.72.647-4.47.953-.25.12-.282-.017-.282-1.413 0-.851.047-1.669.094-1.805.093-.256.75-.273 6.378-.239l6.268.052.047 1.72Zm-21.854 44.6v13.538H31.998l-.89-.596c-1.486-1.004-2.424-1.31-4.221-1.413-2.267-.12-4.19.426-5.581 1.584l-.516.425h-9.864v-3.065h5.612l.312-.443c.422-.596.407-.97-.047-1.55l-.375-.476-2.751-.051-2.751-.051v-3.542l2.75-.051 2.752-.051.375-.477c.454-.58.47-.954.047-1.55l-.312-.443h-5.612v-7.459c0-5.568.046-7.51.187-7.663.14-.153 4.112-.204 16.883-.204h16.696v13.538Zm7.347-5.739c0 7.749 0 7.8.36 8.549.625 1.345.938 1.448 4.674 1.448 3.127 0 3.252-.017 3.58-.375.422-.46.453-1.277.062-1.754-.25-.307-.516-.34-3.267-.375l-2.986-.05-.047-7.63-.03-7.612h2.766c2.33 0 2.877.051 3.33.306.516.273 12.662 14.56 12.662 14.884 0 .068-2.032.136-4.533.136-4.33 0-4.55.017-4.846.34-.391.427-.407 1.21-.016 1.72l.297.41 5.769.085 5.752.085.876 1.021c1.11 1.295 1.235 1.55 1.235 2.708v.954h-.673c-.86 0-1.36.46-1.36 1.277 0 .75.594 1.277 1.423 1.277h.61v1.874H70.986l-.813-.597c-2.767-2.026-7.425-1.907-9.99.273-.343.306-.765.324-6.752.324h-6.394V35.42h5.002v7.8Zm16.149 20.435c3.314 1.686 4.768 6.097 3.173 9.656-1.282 2.827-4.127 4.496-6.862 4.036-2.22-.375-4.19-1.941-5.144-4.104-.953-2.163-.75-5.109.5-7.101.845-1.311 2.252-2.435 3.752-2.98.22-.086 1.095-.12 1.954-.103 1.392.035 1.689.103 2.627.596Zm-49.602 1.482c0 .051-.172.46-.391.92-.204.46-.454 1.175-.563 1.617l-.172.784h-6.534v-3.406h3.83c2.11 0 3.83.034 3.83.085Zm26.106 1.618v1.703H35.187l-.172-.75c-.14-.596-.531-1.686-.922-2.537-.031-.068 2.345-.12 5.268-.12h5.331v1.704Zm12.506-.664c-.25.579-.5 1.345-.547 1.703l-.11.664h-9.504v-3.406h10.615l-.454 1.039Zm20.479.323c0 1.89-.157 2.044-2.017 2.044h-1.407l-.25-.971c-.14-.545-.39-1.26-.563-1.618-.156-.34-.297-.68-.297-.732 0-.051 1.016-.085 2.267-.085h2.267v1.362Z"/><path d="M25.023 39.125c-.787.282-1.318.68-2.15 1.644-1.319 1.512-1.35 1.445 1.56 4.584l2.454 2.657-2.454 2.575c-2.788 2.956-2.818 3.023-1.879 4.252 1.242 1.644 2.97 2.441 4.484 2.076.44-.1 1-.316 1.273-.465.636-.382 5.848-5.863 6.257-6.594.197-.349.363-.996.409-1.578.136-1.627-.243-2.259-3.409-5.597-1.5-1.578-3.015-3.023-3.378-3.239-.712-.398-2.44-.58-3.167-.315Zm2.334 2.657c.227.166 1.545 1.528 2.908 3.023 2.454 2.674 2.651 2.973 2.394 3.687-.046.133-1.303 1.512-2.788 3.073-2.15 2.242-2.802 2.823-3.196 2.89-.606.1-1.288-.084-1.652-.449-.227-.232-.06-.448 2.152-2.856 3.181-3.472 3.181-3.007-.06-6.411l-2.455-2.575.53-.349c.651-.431 1.59-.448 2.166-.033Z"/><path d="M13.293 46.4c-.395.54-.395 1.66.029 2.2.293.36.512.4 2.62.4 2.092 0 2.326-.04 2.677-.42.279-.3.381-.6.381-1.08 0-.48-.102-.78-.38-1.08-.352-.38-.586-.42-2.708-.42-2.136 0-2.356.04-2.62.4Z"/><path d="M64.166 66.321c-2.254 1.202-2.869 4.207-1.273 6.277.731.935 1.536 1.385 2.502 1.402 1.493 0 2.692-.818 3.307-2.254.468-1.118.38-2.737-.234-3.855-.893-1.653-2.824-2.354-4.302-1.57Zm1.946 2.37c.497.301.673.652.688 1.353 0 1.385-1.332 1.953-2.225.951-.38-.45-.439-.6-.365-1.135.16-1.085 1.097-1.67 1.902-1.168Z"/><path d="M59.293 10.38c-.253.322-.293.564-.293 1.626 0 1.11.04 1.27.347 1.657.266.322.413.386.76.306.693-.161.893-.596.893-1.947 0-.933-.053-1.24-.28-1.593-.36-.547-1.027-.58-1.427-.048Z"/><path d="M19.331 13.4c-.479.6-.43 1.66.096 2.18.415.42.543.42 10.935.42 7.36 0 10.616-.06 10.888-.22.399-.22.75-.94.75-1.5 0-.16-.176-.52-.4-.78l-.382-.5H30.426c-10.568 0-10.775 0-11.095.4Z"/><path d="m59.39 16.366-.39.453v5.25c0 5.007.015 5.25.3 5.582.27.314.495.349 2.702.349 2.206 0 2.431-.035 2.702-.349.405-.47.39-1.413-.015-1.849-.256-.279-.6-.349-1.877-.384l-1.56-.07V21.11c0-4.71-.03-4.867-1.006-5.076-.39-.087-.556-.017-.856.332Z"/><path d="M14.357 20.235c-.449.455-.48.937-.062 1.365l.387.4h21.741l.294-.331c.387-.414.372-1.048-.015-1.393C36.392 20 36.19 20 25.506 20c-10.189 0-10.917.014-11.149.235Z"/><path d="M45.867 25.135c-.418.223-.867.995-.867 1.463 0 .183.144.569.337.874.305.487.417.528 1.685.528 1.14 0 1.396-.061 1.669-.406.401-.509.417-1.443.016-2.053-.257-.406-.465-.488-1.396-.528-.61-.04-1.268.02-1.444.122Z"/><path d="M72.826 25.089c-.562.264-.826.753-.826 1.486 0 1.18.347 1.425 2.016 1.425 1.586 0 1.966-.265 1.983-1.425.033-1.059-.496-1.507-1.801-1.568-.628-.02-1.24 0-1.372.082Z"/><path d="M16.444 25.42c-.566.54-.6 1.54-.05 2.14.366.42.532.44 3.595.44 3.162 0 3.195 0 3.595-.5.233-.26.416-.72.416-1s-.183-.74-.416-1c-.4-.5-.433-.5-3.545-.5-2.93 0-3.18.02-3.595.42Z"/><path d="M26.4 25.5c-.224.26-.4.72-.4 1s.176.74.4 1l.382.5h5.684c3.704 0 5.795-.08 6.003-.22.766-.5.686-2.2-.128-2.6-.208-.1-2.906-.18-5.971-.18h-5.588l-.383.5Z"/><path d="M.747 43.236c-.832.447-.999 1.585-.35 2.317.367.427.55.447 3.162.447 2.563 0 2.813-.04 3.112-.407.45-.548.433-1.646-.016-2.154-.3-.346-.666-.386-2.88-.427-1.863-.04-2.645.02-3.028.224Z"/><path d="M.725 56.206c-.743.422-.958 1.568-.443 2.352.272.422.429.442 2.216.442 1.787 0 1.944-.02 2.216-.442.529-.804.3-1.95-.486-2.372-.486-.261-3.031-.241-3.503.02Z"/><path d="M25.315 66.204c-1.406.6-2.315 2.051-2.315 3.719-.014 1.284.352 2.25 1.158 3.051 1.392 1.384 3.414 1.368 4.703-.05 1.392-1.5 1.524-3.852.308-5.503-.88-1.2-2.593-1.75-3.854-1.217Zm1.73 2.435c.85.367 1.01 1.834.278 2.501-.718.634-1.685.367-2.037-.584-.469-1.284.586-2.434 1.758-1.917Z"/></svg>