<svg width="24" height="24" fill="none" xmlns="http://www.w3.org/2000/svg"><path d="M14.15 0v1.516c4.596 0 8.335 3.74 8.335 8.337H24C24 4.42 19.581 0 14.15 0ZM6.31 2.278a1.78 1.78 0 0 0-1.118.39l-.037.03-2.383 2.46.05-.048a2.391 2.391 0 0 0-.667 2.654c.639 1.842 2.265 5.403 5.477 8.61 3.217 3.223 6.814 4.782 8.594 5.477l.018.006.018.006a2.716 2.716 0 0 0 2.626-.522l.023-.019 2.367-2.368c.629-.63.629-1.731 0-2.36l-3.104-3.109c-.63-.63-1.732-.63-2.362 0l-1.504 1.504c-.537-.257-1.862-.923-3.121-2.123-1.241-1.186-1.875-2.555-2.105-3.084l1.516-1.516c.664-.665.702-1.807-.064-2.418l.069.064L7.464 2.7l-.036-.03a1.78 1.78 0 0 0-1.119-.39Zm7.842.754v1.515a5.31 5.31 0 0 1 5.303 5.306h1.515c0-3.76-3.058-6.821-6.818-6.821Zm-7.84.758a.26.26 0 0 1 .16.06l3.08 3.156.038.03c-.01-.007.029.066-.064.158l-2.24 2.242.173.458s.855 2.325 2.682 4.069c1.798 1.714 4.014 2.651 4.014 2.651l.472.202 2.256-2.258c.128-.127.092-.127.22 0l3.104 3.109c.128.129.128.086 0 .216l-2.309 2.31c-.351.298-.714.376-1.151.231-1.713-.67-5.066-2.137-8.044-5.12-2.998-2.996-4.553-6.4-5.123-8.05l-.003-.008-.004-.011c-.115-.303-.03-.744.238-.975l.025-.023L6.15 3.85a.267.267 0 0 1 .162-.06Zm7.84 2.273V7.58a2.276 2.276 0 0 1 2.273 2.274h1.515c0-2.09-1.7-3.79-3.788-3.79Z" fill="#229BD5"/></svg>