<svg width="24" height="24" fill="none" xmlns="http://www.w3.org/2000/svg"><path d="m16.539 11.738-.012.03.01-.027.002-.003Z" fill="#229BD5"/><path d="M12 0C8.046 0 4.8 3.235 4.8 7.181c0 1.53.49 2.955 1.315 4.122l-.03-.046 4.61 7.967.023.031c.186.242.37.438.592.585.223.147.508.24.787.212.56-.056.885-.443 1.185-.85l.019-.025 5.081-8.648.004-.007c.122-.22.21-.441.286-.656A7.098 7.098 0 0 0 19.2 7.18C19.2 3.235 15.955 0 12 0Zm0 1.2c3.301 0 6 2.692 6 5.981 0 .768-.15 1.53-.442 2.24l-.006.015-.005.015a3.15 3.15 0 0 1-.211.49l-5.03 8.56c-.223.293-.378.362-.328.357.025-.002.05.018-.006-.019a1.558 1.558 0 0 1-.287-.299l-4.574-7.908-.016-.022A5.912 5.912 0 0 1 6 7.18C6 3.893 8.7 1.2 12 1.2Zm0 1.884a4.098 4.098 0 1 0 0 8.195 4.098 4.098 0 1 0 0-8.195Zm0 1.2c1.636 0 2.907 1.268 2.907 2.897 0 1.63-1.27 2.898-2.907 2.898-1.636 0-2.907-1.27-2.907-2.898 0-1.629 1.271-2.897 2.907-2.897Z" fill="#229BD5"/><path d="M8.162 16.573c-3.39.48-5.762 1.625-5.762 3.312C2.4 22.158 6.362 24 12 24c5.639 0 9.6-1.842 9.6-4.115 0-1.687-2.37-2.833-5.76-3.312l-.47.8c2.555.354 4.31 1.1 4.31 1.964 0 1.212-3.438 2.194-7.68 2.194-4.241 0-7.68-.982-7.68-2.194 0-.862 1.744-1.606 4.307-1.962l-.465-.802Z" fill="#229BD5"/></svg>