<svg width="80" height="80" fill="none" xmlns="http://www.w3.org/2000/svg"><path d="M.449.445 0 .872V24.76l.449.427.43.445h4.829c5.635 0 5.6.018 5.779-1.584l.09-.908 9.135 6.23c9.818 6.693 10.464 7.049 13.21 7.476.951.142 5.187.178 14.628.142 13.264-.053 13.282-.053 14.125-.445 1.095-.498 2.28-1.69 2.854-2.812.628-1.282.628-3.524 0-4.806-.575-1.121-1.777-2.332-2.854-2.812-.843-.392-.933-.392-13.587-.445-12.671-.054-12.725-.054-13.138-.427l-.395-.374 1.023-.48c2.567-1.211 3.734-4.273 2.71-7.067-.358-.944-.843-1.477-5.976-6.604-3.07-3.08-6.049-5.927-6.623-6.372-1.885-1.406-2.477-1.495-9.297-1.495h-5.905v-.98c0-.818-.072-1.067-.449-1.423L10.608 0H.878L.45.445Zm8.166 12.37v9.968H2.872V2.848h5.743v9.968Zm15.615-6.71c.736.392 11.918 11.374 12.312 12.086.324.623.324 1.798-.017 2.439-.377.73-1.257 1.406-1.993 1.548-1.4.25-1.884-.071-5.743-3.862-3.177-3.133-3.662-3.542-4.182-3.542-.664 0-1.454.676-1.454 1.246 0 .213.126.605.27.872.25.48 10.93 10.964 11.54 11.32.197.107 5.133.214 13.353.267 12.816.089 13.049.089 13.533.463.952.694 1.239 1.264 1.239 2.385 0 1.121-.287 1.69-1.239 2.385-.484.374-.628.374-14.16.374H34.011l-1.257-.427c-1.328-.463-1.471-.552-14.448-9.363l-6.802-4.628-.018-6.995V5.678l6.066.053c5.474.054 6.103.09 6.677.374Z"/><path d="M4.465 7.469c-.45.45-.582 1.068-.357 1.687.131.338 1.033.844 1.484.844C6.08 10 7 8.969 7 8.406 7 7.731 6.23 7 5.498 7c-.357 0-.752.169-1.033.469Z"/><path d="M40.446.45 40 .88v21.24l.446.43.429.45h38.25l.429-.45.446-.43V.88l-.446-.43-.429-.45h-38.25l-.429.45ZM77.143 11.5v8.625H42.857V2.875h34.286V11.5Z"/><path d="M49.353 5.438c-.29.262-.453.63-.453.962 0 .332-.163.7-.453.962-.272.28-.653.438-.997.438s-.725.157-.997.438C46 8.658 46 8.693 46 12s0 3.342.453 3.762c.272.28.653.438.997.438.743 0 1.45.683 1.45 1.4 0 .332.163.7.453.962l.435.438h21.424l.435-.438c.29-.262.453-.63.453-.962 0-.718.707-1.4 1.45-1.4.344 0 .725-.157.997-.438C75 15.342 75 15.307 75 12s0-3.342-.453-3.762a1.436 1.436 0 0 0-.997-.438c-.743 0-1.45-.683-1.45-1.4 0-.333-.163-.7-.453-.963L71.212 5H49.788l-.435.438Zm20.21 2.642c0 .35 1.885 2.17 2.247 2.17.254 0 .29.28.29 1.75s-.036 1.75-.29 1.75c-.362 0-2.248 1.82-2.248 2.17 0 .245-.96.28-9.062.28s-9.063-.035-9.063-.28c0-.35-1.884-2.17-2.247-2.17-.254 0-.29-.28-.29-1.75s.036-1.75.29-1.75c.145 0 .725-.42 1.269-.945.543-.525.978-1.085.978-1.225 0-.245.961-.28 9.063-.28s9.063.035 9.063.28Z"/><path d="M20.316 37.069c-.124.053-3.674 1.001-7.863 2.11-5.804 1.54-7.72 2.112-8.005 2.398-.39.376-.39.412-.444 10.645-.017 6.387.018 10.43.125 10.717.106.25.355.59.585.733C5.07 63.887 22.055 67 22.943 67c.426 0 15.832-4.08 16.276-4.312.213-.107.48-.393.586-.644.142-.304.195-3.56.195-10.699V41.076l-.408-.483c-.408-.465-.728-.537-9.372-2.058-8.928-1.574-9.442-1.645-9.904-1.466Zm6.55 3.792c4.685.823 4.845.877 4.135 1.074-.408.107-2.396.644-4.42 1.18l-3.691.967-5.307-.913c-2.929-.519-5.201-.966-5.077-1.02 1.385-.483 8.697-2.29 9.035-2.218.248.036 2.644.465 5.325.93Zm10.24 5.135c-.035.036-2.892.823-6.353 1.735l-6.284 1.664-.053-1.324c-.035-.733-.035-1.36 0-1.377.036-.036 2.893-.805 6.354-1.736l6.301-1.663.054 1.323c.035.716.017 1.342-.018 1.378Zm-22.7-.483c3.833.68 7.01 1.27 7.064 1.324.053.036.07.68.035 1.413l-.053 1.306-7.277-1.252-7.278-1.27-.053-1.378c-.053-1.234-.018-1.377.266-1.377.178 0 3.462.554 7.295 1.234Zm22.7 14.814c-.035.035-2.662.751-5.82 1.574-3.16.841-6.018 1.61-6.32 1.7l-.585.143V52.383l6.354-1.682 6.336-1.681.054 5.617c.017 3.096.017 5.654-.018 5.69Zm-23.056-9.16c3.675.644 6.87 1.216 7.1 1.252l.39.09V63.78h-.39c-.23 0-3.514-.555-7.33-1.217l-6.923-1.217-.053-5.671c-.035-5.081-.018-5.671.249-5.671.142 0 3.283.518 6.957 1.163Z"/><path d="M68.959 43.445c-.377.356-.449.605-.449 1.406v.979l-6.337.053-6.338.054-1.346.658c-1.221.605-1.796 1.121-7.361 6.674-5.584 5.553-6.068 6.087-6.427 7.048-.808 2.19-.323 4.485 1.31 6.105.52.498 1.221 1.014 1.598 1.121.754.25.808.374.341.783-.287.267-1.58.303-13.052.338l-12.746.054-.898.427c-1.131.57-2.352 1.762-2.837 2.83-.556 1.174-.556 3.524 0 4.698.485 1.068 1.688 2.26 2.837 2.812l.898.445 13.464.054c14.776.053 14.973.035 17.523-1.015.646-.267 2.908-1.655 5.026-3.079a2702.52 2702.52 0 0 0 9.103-6.087l5.242-3.506v.73c0 .534.108.836.449 1.157l.43.445h9.731l.431-.445.449-.427V43.872l-.449-.427-.43-.445H69.39l-.431.445Zm8.168 12.37v9.966h-5.745V45.848h5.746v9.966Zm-8.617-.036v7.083l-9.551 6.39c-5.242 3.524-9.784 6.55-10.09 6.71-.305.16-1.077.48-1.723.711l-1.167.41h-13.68c-13.537 0-13.68 0-14.165-.374-.952-.694-1.24-1.264-1.24-2.385 0-1.121.288-1.69 1.24-2.385.484-.374.718-.374 13.626-.463 7.235-.053 13.178-.106 13.213-.142.252-.125 11.455-11.23 11.634-11.515.557-.908-.126-2.047-1.22-2.047-.521 0-1.006.41-4.184 3.542-3.86 3.79-4.344 4.111-5.745 3.862-.736-.142-1.615-.819-1.992-1.548-.342-.641-.342-1.816-.019-2.439.144-.267 2.909-3.096 6.158-6.282 4.381-4.325 6.05-5.838 6.517-5.98.377-.125 2.927-.196 6.517-.214l5.871-.018v7.084Z"/><path d="M73.445 50.469C72.5 51.388 73.162 53 74.486 53c.776 0 1.514-.731 1.514-1.5s-.738-1.5-1.514-1.5c-.36 0-.757.169-1.04.469Z"/></svg>