<svg width="24" height="24" fill="none" xmlns="http://www.w3.org/2000/svg"><path d="M3.24 2.943c-.235.118-.348.296-.367.582-.014.192.005.28.075.398.193.305.244.314 1.407.342l1.054.024 1.022 4.078c.558 2.24 1.022 4.092 1.022 4.11 0 .024-.037.038-.084.038-.047 0-.235.075-.427.164-.628.3-1.064.891-1.186 1.599-.187 1.134.633 2.264 1.79 2.456.207.033 2.1.047 5.963.038 5.63-.014 5.658-.014 5.785-.113.206-.15.31-.319.333-.548a.706.706 0 0 0-.37-.694c-.17-.085-.371-.09-5.832-.09-5.564 0-5.662 0-5.855-.093-.497-.244-.525-.886-.051-1.237.126-.099.164-.099 5.901-.122 5.485-.024 5.78-.028 5.902-.108a.786.786 0 0 0 .197-.197c.122-.188 2.053-7.988 2.03-8.19-.029-.196-.174-.43-.329-.52-.08-.042-1.64-.06-7.157-.08l-7.055-.022-.197-.77c-.3-1.176-.216-1.129-2.04-1.129-1.213 0-1.391.01-1.532.084Zm16.682 3.268c0 .065-1.51 6.06-1.547 6.154l-.047.103-4.697-.009-4.701-.014-.778-3.094c-.427-1.701-.77-3.108-.76-3.131.024-.037 12.53-.047 12.53-.01Z"/><path d="M8.095 18.234c-.515.09-1.045.497-1.265.975-.085.178-.103.305-.103.69 0 .445.009.482.159.764.192.351.44.585.797.754.22.103.328.122.684.122.356 0 .464-.019.685-.122a1.61 1.61 0 0 0 .801-.783c.14-.286.155-.351.155-.759 0-.394-.014-.478-.131-.708-.216-.445-.713-.839-1.135-.91-.356-.055-.422-.06-.647-.023Zm.436 1.5c.052.052.094.108.094.132 0 .093-.16.243-.258.243s-.258-.15-.258-.243c0-.066.183-.225.258-.225.038 0 .113.042.164.093Z"/><path d="M17.682 18.24a1.674 1.674 0 0 0-.394 3.173c.23.107.328.126.689.126.361 0 .46-.019.69-.127.341-.159.641-.459.815-.815.122-.244.136-.328.136-.699 0-.384-.014-.454-.155-.735a1.658 1.658 0 0 0-1.781-.924Zm.417 1.448c.103.056.122.276.033.365-.033.033-.117.056-.188.056-.187 0-.272-.182-.16-.351.085-.127.17-.145.315-.07Z"/></svg>