<svg width="24" height="24" fill="none" xmlns="http://www.w3.org/2000/svg"><path d="M22.324 13.676c.926-5.702-2.946-11.075-8.648-12C7.974.75 2.6 4.622 1.676 10.324c-.926 5.702 2.946 11.074 8.648 12 5.702.926 11.075-2.946 12-8.648Z" stroke="#229BD5" stroke-width="1.2" stroke-linecap="round" stroke-linejoin="round"/><path d="M12 20.63a8.63 8.63 0 1 0 0-17.26 8.63 8.63 0 0 0 0 17.26Z" stroke="#229BD5" stroke-width="1.2" stroke-linecap="round" stroke-linejoin="round"/><path d="M12 6.114v5.028" stroke="#229BD5" stroke-width="1.2" stroke-linecap="round" stroke-linejoin="round"/><path d="M12 3.37v1.714" stroke="#229BD5" stroke-width="1.2" stroke-linecap="round" stroke-linejoin="round"/><path d="M3.37 12h1.714" stroke="#229BD5" stroke-width="1.2" stroke-linecap="round" stroke-linejoin="round"/><path d="M12 20.63v-1.716" stroke="#229BD5" stroke-width="1.2" stroke-linecap="round" stroke-linejoin="round"/><path d="M20.63 12h-1.716" stroke="#229BD5" stroke-width="1.2" stroke-linecap="round" stroke-linejoin="round"/><path d="m6.2 6.2.607.606" stroke="#229BD5" stroke-width="1.2" stroke-linecap="round" stroke-linejoin="round"/><path d="m6.2 17.799.607-.607" stroke="#229BD5" stroke-width="1.2" stroke-linecap="round" stroke-linejoin="round"/><path d="m17.8 17.799-.608-.607" stroke="#229BD5" stroke-width="1.2" stroke-linecap="round" stroke-linejoin="round"/><path d="m17.8 6.2-.608.606" stroke="#229BD5" stroke-width="1.2" stroke-linecap="round" stroke-linejoin="round"/><path d="m15.83 15.713-3.216-3.117" stroke="#229BD5" stroke-width="1.2" stroke-linecap="round" stroke-linejoin="round"/><path d="M12 12.858a.858.858 0 1 0 0-1.715.858.858 0 0 0 0 1.715Z" stroke="#229BD5" stroke-width="1.2" stroke-linecap="round" stroke-linejoin="round"/></svg>